<svg width="337" height="5" viewBox="0 0 337 5" fill="none" xmlns="http://www.w3.org/2000/svg">
<path opacity="0.2" fill-rule="evenodd" clip-rule="evenodd" d="M4.39653 2.54479C3.50628 3.36781 2.49427 4.30005 0.537451 4.30005C0.239306 4.30005 -4.76837e-05 4.0607 -4.76837e-05 3.76255C-4.76837e-05 3.4644 0.239306 3.22505 0.537451 3.22505C2.07432 3.22505 2.81338 2.54479 3.67005 1.75531C4.56031 0.932294 5.57231 5.62668e-05 7.52913 5.62668e-05C9.48508 5.62668e-05 10.495 0.931468 11.387 1.75422L11.3882 1.75531C12.2427 2.54479 12.9818 3.22505 14.5187 3.22505C16.0556 3.22505 16.7926 2.54479 17.6471 1.75531C18.5374 0.932294 19.5473 5.62668e-05 21.5041 5.62668e-05C23.4609 5.62668e-05 24.473 0.932294 25.3632 1.75531C26.2177 2.54479 26.9547 3.22505 28.4916 3.22505C30.0285 3.22505 30.7676 2.54479 31.6221 1.75531C32.5124 0.932294 33.5223 5.62668e-05 35.4791 5.62668e-05C37.4338 5.62668e-05 38.4438 0.932294 39.334 1.75531C40.1885 2.54479 40.9255 3.22505 42.4624 3.22505C42.475 3.22505 42.4875 3.22548 42.4999 3.22632C42.5123 3.22548 42.5248 3.22505 42.5375 3.22505C44.0743 3.22505 44.8134 2.54479 45.6701 1.75531C46.5603 0.932294 47.5723 5.62668e-05 49.5291 5.62668e-05C51.4851 5.62668e-05 52.495 0.931465 53.387 1.75422L53.3882 1.75531C54.2427 2.54479 54.9818 3.22505 56.5187 3.22505C58.0556 3.22505 58.7926 2.54479 59.6471 1.75531C60.5374 0.932294 61.5473 5.62668e-05 63.5041 5.62668e-05C65.4609 5.62668e-05 66.473 0.932294 67.3632 1.75531C68.2177 2.54479 68.9547 3.22505 70.4916 3.22505C72.0285 3.22505 72.7676 2.54479 73.6221 1.75531C74.5124 0.932294 75.5223 5.62668e-05 77.4791 5.62668e-05C79.4338 5.62668e-05 80.4438 0.932294 81.334 1.75531C82.1885 2.54479 82.9255 3.22505 84.4624 3.22505C84.475 3.22505 84.4876 3.22548 84.5 3.22633C84.5124 3.22548 84.5249 3.22505 84.5376 3.22505C86.0744 3.22505 86.8135 2.54479 87.6702 1.75531C88.5604 0.932294 89.5724 5.62668e-05 91.5293 5.62668e-05C93.4852 5.62668e-05 94.4951 0.931469 95.3871 1.75422L95.3883 1.75531C96.2429 2.54479 96.9819 3.22505 98.5188 3.22505C100.056 3.22505 100.793 2.54479 101.647 1.75531C102.538 0.932294 103.547 5.62668e-05 105.504 5.62668e-05C107.461 5.62668e-05 108.473 0.932294 109.363 1.75531C110.218 2.54479 110.955 3.22505 112.492 3.22505C114.029 3.22505 114.768 2.54479 115.622 1.75531C116.512 0.932294 117.522 5.62668e-05 119.479 5.62668e-05C121.434 5.62668e-05 122.444 0.932294 123.334 1.75531C124.189 2.54479 124.926 3.22505 126.463 3.22505C126.475 3.22505 126.488 3.22548 126.5 3.22632C126.512 3.22548 126.525 3.22505 126.538 3.22505C128.074 3.22505 128.814 2.54479 129.67 1.75531C130.56 0.932294 131.572 5.62668e-05 133.529 5.62668e-05C135.485 5.62668e-05 136.495 0.931484 137.387 1.75424L137.388 1.75531C138.243 2.54479 138.982 3.22505 140.519 3.22505C142.056 3.22505 142.793 2.54479 143.647 1.75531C144.538 0.932294 145.547 5.62668e-05 147.504 5.62668e-05C149.461 5.62668e-05 150.473 0.932294 151.363 1.75531C152.218 2.54479 152.955 3.22505 154.492 3.22505C156.029 3.22505 156.768 2.54479 157.622 1.75531C158.512 0.932294 159.522 5.62668e-05 161.479 5.62668e-05C163.434 5.62668e-05 164.444 0.932294 165.334 1.75531C166.189 2.54479 166.926 3.22505 168.462 3.22505C168.475 3.22505 168.488 3.22548 168.5 3.22632C168.512 3.22548 168.525 3.22505 168.538 3.22505C170.074 3.22505 170.814 2.54479 171.67 1.75531C172.56 0.932294 173.572 5.62668e-05 175.529 5.62668e-05C177.485 5.62668e-05 178.495 0.931484 179.387 1.75424L179.388 1.75531C180.243 2.54479 180.982 3.22505 182.519 3.22505C184.056 3.22505 184.793 2.54479 185.647 1.75531C186.538 0.932294 187.547 5.62668e-05 189.504 5.62668e-05C191.461 5.62668e-05 192.473 0.932294 193.363 1.75531C194.218 2.54479 194.955 3.22505 196.492 3.22505C198.029 3.22505 198.768 2.54479 199.622 1.75531C200.512 0.932294 201.522 5.62668e-05 203.479 5.62668e-05C205.434 5.62668e-05 206.444 0.932294 207.334 1.75531C208.189 2.54479 208.926 3.22505 210.462 3.22505C210.475 3.22505 210.488 3.22548 210.5 3.22632C210.512 3.22548 210.525 3.22505 210.538 3.22505C212.074 3.22505 212.814 2.54479 213.67 1.75531C214.56 0.932294 215.572 5.62668e-05 217.529 5.62668e-05C219.485 5.62668e-05 220.495 0.931484 221.387 1.75424L221.388 1.75531C222.243 2.54479 222.982 3.22505 224.519 3.22505C226.056 3.22505 226.793 2.54479 227.647 1.75531C228.538 0.932294 229.547 5.62668e-05 231.504 5.62668e-05C233.461 5.62668e-05 234.473 0.932294 235.363 1.75531C236.218 2.54479 236.955 3.22505 238.492 3.22505C240.029 3.22505 240.768 2.54479 241.622 1.75531C242.512 0.932294 243.522 5.62668e-05 245.479 5.62668e-05C247.434 5.62668e-05 248.444 0.932294 249.334 1.75531C250.189 2.54479 250.926 3.22505 252.462 3.22505C252.475 3.22505 252.488 3.22548 252.5 3.22632C252.512 3.22548 252.525 3.22505 252.538 3.22505C254.074 3.22505 254.814 2.54479 255.67 1.75531C256.56 0.932294 257.572 5.62668e-05 259.529 5.62668e-05C261.485 5.62668e-05 262.495 0.931439 263.387 1.75418L263.388 1.75531C264.243 2.54479 264.982 3.22505 266.519 3.22505C268.056 3.22505 268.793 2.54479 269.647 1.75531C270.538 0.932294 271.547 5.62668e-05 273.504 5.62668e-05C275.461 5.62668e-05 276.473 0.932294 277.363 1.75531C278.218 2.54479 278.955 3.22505 280.492 3.22505C282.029 3.22505 282.768 2.54479 283.622 1.75531C284.512 0.932294 285.522 5.62668e-05 287.479 5.62668e-05C289.434 5.62668e-05 290.444 0.932294 291.334 1.75531C292.189 2.54479 292.926 3.22505 294.462 3.22505C294.475 3.22505 294.488 3.22548 294.5 3.22633C294.513 3.22548 294.525 3.22505 294.538 3.22505C296.074 3.22505 296.814 2.54479 297.67 1.75531C298.56 0.932294 299.572 5.62668e-05 301.529 5.62668e-05C303.485 5.62668e-05 304.495 0.931439 305.387 1.75418L305.388 1.75531C306.243 2.54479 306.982 3.22505 308.519 3.22505C310.056 3.22505 310.793 2.54479 311.647 1.75531C312.538 0.932294 313.547 5.62668e-05 315.504 5.62668e-05C317.461 5.62668e-05 318.473 0.932294 319.363 1.75531C320.218 2.54479 320.955 3.22505 322.492 3.22505C324.029 3.22505 324.768 2.54479 325.622 1.75531C326.512 0.932294 327.522 5.62668e-05 329.479 5.62668e-05C331.434 5.62668e-05 332.444 0.932294 333.334 1.75531C334.189 2.54479 334.926 3.22505 336.462 3.22505C336.761 3.22505 337 3.4644 337 3.76255C337 4.0607 336.761 4.30005 336.462 4.30005C334.506 4.30005 333.496 3.36781 332.606 2.54479C331.751 1.75531 331.014 1.07505 329.479 1.07505C327.942 1.07505 327.205 1.75531 326.351 2.54479L326.35 2.54592C325.458 3.36867 324.448 4.30005 322.492 4.30005C320.535 4.30005 319.525 3.36781 318.635 2.54479C317.78 1.75531 317.041 1.07505 315.504 1.07505C313.969 1.07505 313.23 1.75531 312.378 2.54479L312.377 2.54589C311.485 3.36864 310.475 4.30005 308.519 4.30005C306.56 4.30005 305.55 3.36781 304.66 2.54479C303.805 1.75531 303.066 1.07505 301.529 1.07505C299.991 1.07505 299.254 1.75422 298.399 2.54289L298.397 2.54479C297.506 3.36781 296.494 4.30005 294.538 4.30005C294.525 4.30005 294.513 4.29962 294.5 4.29877C294.488 4.29962 294.475 4.30005 294.462 4.30005C292.506 4.30005 291.496 3.36781 290.606 2.54479C289.751 1.75531 289.014 1.07505 287.479 1.07505C285.942 1.07505 285.205 1.75531 284.351 2.54479L284.35 2.54592V2.54596L284.349 2.5461C283.457 3.3688 282.448 4.30005 280.492 4.30005C278.535 4.30005 277.525 3.36781 276.635 2.54479C275.78 1.75531 275.041 1.07505 273.504 1.07505C271.969 1.07505 271.23 1.75531 270.378 2.54479L270.377 2.54589L270.377 2.54595C269.485 3.36869 268.475 4.30005 266.519 4.30005C264.56 4.30005 263.55 3.36781 262.66 2.54479C261.805 1.75531 261.066 1.07505 259.529 1.07505C257.991 1.07505 257.254 1.75422 256.399 2.54289L256.397 2.54479C255.506 3.36781 254.494 4.30005 252.538 4.30005C252.525 4.30005 252.512 4.29962 252.5 4.29878C252.488 4.29962 252.475 4.30005 252.462 4.30005C250.506 4.30005 249.496 3.36781 248.606 2.54479C247.751 1.75531 247.014 1.07505 245.479 1.07505C243.942 1.07505 243.205 1.75531 242.351 2.54479L242.35 2.54586L242.35 2.54591C241.458 3.36865 240.448 4.30005 238.492 4.30005C236.535 4.30005 235.525 3.36781 234.635 2.54479C233.78 1.75531 233.041 1.07505 231.504 1.07505C229.969 1.07505 229.23 1.75531 228.378 2.54479L228.377 2.54588C227.485 3.36864 226.475 4.30005 224.519 4.30005C222.56 4.30005 221.55 3.36781 220.66 2.54479C219.805 1.75531 219.066 1.07505 217.529 1.07505C215.991 1.07505 215.255 1.75421 214.399 2.54287L214.397 2.54479C213.506 3.36781 212.494 4.30005 210.538 4.30005C210.525 4.30005 210.512 4.29962 210.5 4.29878C210.488 4.29962 210.475 4.30005 210.462 4.30005C208.506 4.30005 207.496 3.36781 206.606 2.54479C205.751 1.75531 205.014 1.07505 203.479 1.07505C201.942 1.07505 201.205 1.75531 200.351 2.54479L200.35 2.54586L200.35 2.54591C199.458 3.36865 198.448 4.30005 196.492 4.30005C194.535 4.30005 193.525 3.36781 192.635 2.54479C191.78 1.75531 191.041 1.07505 189.504 1.07505C187.969 1.07505 187.23 1.75531 186.378 2.54479L186.377 2.54588C185.485 3.36864 184.475 4.30005 182.519 4.30005C180.56 4.30005 179.55 3.36781 178.66 2.54479C177.805 1.75531 177.066 1.07505 175.529 1.07505C173.991 1.07505 173.255 1.75421 172.399 2.54287L172.397 2.54479C171.506 3.36781 170.494 4.30005 168.538 4.30005C168.525 4.30005 168.512 4.29962 168.5 4.29878C168.488 4.29962 168.475 4.30005 168.462 4.30005C166.506 4.30005 165.496 3.36781 164.606 2.54479C163.751 1.75531 163.014 1.07505 161.479 1.07505C159.942 1.07505 159.205 1.75531 158.351 2.54479L158.35 2.54586L158.35 2.54591C157.458 3.36865 156.448 4.30005 154.492 4.30005C152.535 4.30005 151.525 3.36781 150.635 2.54479C149.78 1.75531 149.041 1.07505 147.504 1.07505C145.969 1.07505 145.23 1.75531 144.378 2.54479L144.377 2.54588C143.485 3.36864 142.475 4.30005 140.519 4.30005C138.56 4.30005 137.55 3.36781 136.66 2.54479C135.805 1.75531 135.066 1.07505 133.529 1.07505C131.991 1.07505 131.255 1.75421 130.399 2.54287L130.397 2.54479C129.506 3.36781 128.494 4.30005 126.538 4.30005C126.525 4.30005 126.512 4.29962 126.5 4.29878C126.488 4.29962 126.475 4.30005 126.463 4.30005C124.506 4.30005 123.496 3.36781 122.606 2.54479C121.751 1.75531 121.014 1.07505 119.479 1.07505C117.942 1.07505 117.205 1.75531 116.351 2.54479L116.35 2.54589C115.458 3.36864 114.448 4.30005 112.492 4.30005C110.535 4.30005 109.525 3.36781 108.635 2.54479C107.78 1.75531 107.041 1.07505 105.504 1.07505C103.969 1.07505 103.23 1.75531 102.378 2.54479L102.377 2.54589C101.485 3.36864 100.475 4.30005 98.5188 4.30005C96.5599 4.30005 95.55 3.36781 94.6598 2.54479C93.8052 1.75531 93.0662 1.07505 91.5293 1.07505C89.9915 1.07505 89.2545 1.75422 88.3987 2.54288L88.3967 2.54479C87.5064 3.36781 86.4944 4.30005 84.5376 4.30005C84.5249 4.30005 84.5124 4.29962 84.5 4.29877C84.4876 4.29962 84.475 4.30005 84.4624 4.30005C82.5056 4.30005 81.4956 3.36781 80.6054 2.54479C79.7509 1.75531 79.0139 1.07505 77.4791 1.07505C75.9422 1.07505 75.2052 1.75531 74.3507 2.54479L74.3495 2.54589C73.4574 3.36864 72.4475 4.30005 70.4916 4.30005C68.5348 4.30005 67.5248 3.36781 66.6346 2.54479C65.7801 1.75531 65.041 1.07505 63.5041 1.07505C61.9693 1.07505 61.2302 1.75531 60.3778 2.54479L60.3766 2.54588C59.4846 3.36864 58.4747 4.30005 56.5187 4.30005C54.5598 4.30005 53.5498 3.36781 52.6596 2.54479C51.8051 1.75531 51.0661 1.07505 49.5291 1.07505C47.9914 1.07505 47.2544 1.75422 46.3986 2.54288L46.3965 2.54479C45.5063 3.36781 44.4943 4.30005 42.5375 4.30005C42.5248 4.30005 42.5123 4.29962 42.4999 4.29878C42.4875 4.29962 42.475 4.30005 42.4624 4.30005C40.5056 4.30005 39.4956 3.36781 38.6054 2.54479C37.7509 1.75531 37.0139 1.07505 35.4791 1.07505C33.9422 1.07505 33.2052 1.75531 32.3507 2.54479L32.3495 2.54589C31.4574 3.36864 30.4475 4.30005 28.4916 4.30005C26.5348 4.30005 25.5248 3.36781 24.6346 2.54479C23.7801 1.75531 23.041 1.07505 21.5041 1.07505C19.9693 1.07505 19.2302 1.75531 18.3778 2.54479L18.3766 2.54589C17.4845 3.36864 16.4747 4.30005 14.5187 4.30005C12.5598 4.30005 11.5498 3.36781 10.6596 2.54479C9.80512 1.75531 9.06606 1.07505 7.52913 1.07505C5.99135 1.07505 5.25439 1.75422 4.39861 2.54288L4.39861 2.54288L4.39653 2.54479Z" fill="#636363"/>
</svg>
